<svg xmlns="http://www.w3.org/2000/svg" width="533.333" height="533.333" preserveAspectRatio="xMidYMid meet" version="1.0" viewBox="0 0 400 400"><metadata>Created by potrace 1.11, written by Peter Selinger 2001-2013</metadata><g fill="#000" stroke="none"><path d="M0 2000 l0 -2000 2000 0 2000 0 0 2000 0 2000 -2000 0 -2000 0 0 -2000z m1565 1445 l0 -40 -120 -2 c-66 -2 -129 -5 -141 -8 l-21 -5 -6 -922 c-7 -946 -4 -1077 30 -1146 l18 -37 135 -5 135 -5 0 -40 0 -40 -425 0 -425 0 0 40 0 40 130 5 130 5 3 950 c3 957 -1 1093 -33 1141 -14 22 -22 24 -138 26 l-122 3 -3 28 c-7 60 -31 57 430 55 l423 -3 0 -40z m1745 -718 c0 -56 -44 -145 -77 -158 -32 -12 -108 -11 -217 2 -57 7 -92 7 -98 1 -6 -6 3 -27 26 -59 135 -188 138 -421 9 -620 -47 -72 -152 -167 -225 -204 -123 -62 -306 -86 -437 -58 -46 10 -52 8 -105 -21 -68 -39 -96 -72 -96 -115 0 -44 26 -74 75 -86 22 -5 141 -13 265 -19 124 -5 266 -15 315 -21 364 -44 540 -171 574 -413 20 -144 -31 -278 -153 -399 -134 -133 -302 -207 -536 -237 -101 -13 -340 -12 -420 1 -197 32 -360 131 -423 259 -18 37 -22 62 -22 140 0 88 3 101 34 165 52 105 133 181 246 230 93 40 115 53 115 64 0 4 -32 15 -71 25 -142 37 -199 113 -170 223 15 56 47 91 147 164 46 33 84 64 84 68 0 5 -28 27 -62 49 -182 118 -257 269 -245 497 7 128 34 213 98 309 86 129 205 205 366 233 105 18 303 13 463 -12 153 -24 407 -18 470 12 65 31 70 29 70 -20z" transform="translate(0.000000,400.000000) scale(0.100000,-0.100000)"/><path d="M2257 2639 c-129 -30 -186 -130 -195 -340 -10 -267 86 -478 255 -557 52 -24 70 -27 163 -27 93 0 111 3 155 26 104 53 155 161 162 344 8 203 -31 330 -134 430 -113 110 -266 157 -406 124z" transform="translate(0.000000,400.000000) scale(0.100000,-0.100000)"/><path d="M2277 1114 c-107 -19 -182 -60 -251 -135 -72 -80 -99 -148 -100 -249 0 -87 19 -133 81 -191 141 -133 452 -184 732 -118 107 25 199 73 283 149 82 75 109 127 110 213 0 107 -68 204 -179 253 -176 78 -481 113 -676 78z" transform="translate(0.000000,400.000000) scale(0.100000,-0.100000)"/></g></svg>